<svg width="1500" height="1568" viewBox="0 0 1500 1568" fill="none" xmlns="http://www.w3.org/2000/svg">
<g clip-path="url(#clip0)">
<path d="M209.014 666.088C209.014 666.088 132.014 624.088 131.014 607.088C130.014 590.088 183.014 541.088 258.014 523.088C333.014 505.088 441.524 493.028 454.014 501.088C485.014 521.088 544.014 708.088 533.014 739.088C522.014 770.088 393.014 954.088 368.014 1057.09C360.144 1089.52 363.014 1124.09 409.014 1137.09C409.014 1137.09 284.814 1135.34 209.014 964.088C155.014 842.088 165.044 817.258 169.014 759.088C172.014 715.088 209.014 666.088 209.014 666.088Z" fill="#22B573"/>
<path d="M801.514 1136.59L410.514 1138.59C410.514 1138.59 364.514 1127.59 364.514 1085.59C364.514 1043.59 402.514 946.588 433.514 919.588C464.514 892.588 822.514 864.588 787.514 892.588C752.514 920.588 722.434 953.128 720.514 998.588C719.014 1034.09 801.514 1136.59 801.514 1136.59Z" fill="#228873"/>
<path d="M1188.01 498.088L1316.01 717.088C1316.01 717.088 1330.01 760.088 1316.01 794.088C1302.01 828.088 1219.25 905.658 1163.13 872.878C1107.01 840.088 1069.01 577.088 1106.01 537.088C1143.01 497.088 1188.01 498.088 1188.01 498.088Z" fill="#228873"/>
<path d="M1018.01 1146.09C1018.01 1146.09 1030.01 1235.09 1003.01 1242.09C976.014 1249.09 965.014 1242.09 922.014 1223.09C879.014 1204.09 760.014 1093.09 733.014 1006.09C706.014 919.088 960.014 780.088 1034.01 729.088C1114.17 673.848 1151.16 846.608 1197.59 835.348C1244.01 824.088 1332.01 793.088 1316.01 717.088C1315.6 715.148 1349.01 771.078 1349.01 818.088C1349.01 903.088 1296.35 997.738 1269.01 1033.09C1228.01 1086.09 1181.07 1124.84 1146.01 1133.09C1095.01 1145.09 1018.01 1146.09 1018.01 1146.09Z" fill="#22B573"/>
<path d="M393.704 349.868C393.704 349.868 505.014 145.088 522.014 121.088C539.014 97.0881 624.014 54.0881 673.014 89.0881C722.014 124.088 865.014 378.088 822.014 429.088C779.014 480.088 427.014 488.088 403.014 415.088" fill="#228873"/>
<path d="M522.014 121.088C522.014 121.088 558.014 89.0882 591.014 109.088C624.014 129.088 675.014 194.238 751.014 357.658C827.014 521.078 1039.01 453.088 1075.01 429.088C1111.01 405.088 1135.01 317.088 1136.01 291.088C1137.01 265.088 1148.36 152.888 1104.01 165.088C1064.01 176.088 1031.01 206.088 1031.01 206.088C1031.01 206.088 981.764 113.438 946.014 88.0882C891.014 49.0882 856.014 33.0882 774.014 33.0882C732.004 33.0882 689.014 30.0882 598.014 59.0882C546.344 75.5582 522.014 121.088 522.014 121.088Z" fill="#22B573"/>
<path d="M547.014 398.088L289.014 255.088L306.014 866.088L547.014 1028.09" fill="#D2BB8F"/>
<path d="M547.014 437.088L322.014 309.088L332.014 841.088L547.014 988.088" fill="#4EBE82"/>
<path d="M547.014 674.088L378.504 872.878L339.914 846.488L521.014 629.088L324.624 447.838V380.128L547.014 595.088" fill="#B39A5E"/>
<path d="M921.904 255.088V854.088L547.154 1028.09V398.088L921.904 255.088Z" fill="#D2BB8F"/>
<path d="M921.904 818.088L735.014 903.878L760.014 703.088L921.904 655.758" fill="#6FC0E2"/>
<path d="M921.904 291.138L547.154 437.018V988.088L760.014 891.088C760.014 891.088 766.784 809.998 841.014 718.088C883.014 666.088 921.904 668.088 921.904 668.088" fill="#82D9AB"/>
<path d="M675.174 929.448L620.014 865.088L921.904 495.088V427.088L837.014 529.088L744.014 450.088L851.064 318.638L759.264 354.498L547.154 595.468V674.488L707.014 496.088L798.014 573.088L547.154 870.618L623.064 953.068" fill="#B39A5E"/>
<path d="M1193.01 1034.09L1207.01 426.088L921.904 255.088V855.088L1193.01 1034.09Z" fill="#D2BB8F"/>
<path d="M1161.01 969.088L1168.71 619.978L921.904 645.588V818.358L1161.01 969.088Z" fill="#4DA3DB"/>
<path d="M921.904 291.138L1174.87 443.088L1167.87 644.088C1167.87 644.088 1132.87 699.088 1081.87 703.088C1030.87 707.088 994.874 670.068 954.874 667.088C928.014 665.088 921.904 668.088 921.904 668.088V291.138Z" fill="#4EBE82"/>
<path d="M1171.46 541.008L1096.01 645.088L921.904 497.268V429.548L1086.01 568.088L1174.36 457.808L1171.46 541.008Z" fill="#B39A5E"/>
<path d="M760.484 399.088C718.634 399.088 684.574 433.138 684.574 474.998C684.574 485.918 686.804 496.338 691.214 505.988C710.194 547.518 746.584 591.368 757.284 603.818C758.084 604.748 759.254 605.288 760.484 605.288C761.714 605.288 762.884 604.748 763.684 603.818C774.384 591.368 810.774 547.528 829.754 505.988C834.164 496.348 836.394 485.918 836.394 474.998C836.394 433.138 802.344 399.088 760.484 399.088ZM760.484 514.428C738.744 514.428 721.054 496.738 721.054 474.998C721.054 453.258 738.744 435.568 760.484 435.568C782.224 435.568 799.914 453.258 799.914 474.998C799.924 496.738 782.234 514.428 760.484 514.428Z" fill="#C92020"/>
<path d="M149.658 1476H107.258C86.1911 1476 69.9245 1470.4 58.4578 1459.2C46.9911 1448 41.2578 1431.87 41.2578 1410.8V1284C41.2578 1262.93 46.9911 1246.8 58.4578 1235.6C69.9245 1224.4 86.1911 1218.8 107.258 1218.8H149.658C170.458 1218.8 186.591 1224.53 198.058 1236C209.524 1247.2 215.258 1263.2 215.258 1284V1296C215.258 1301.87 212.458 1304.8 206.858 1304.8H172.858C167.258 1304.8 164.458 1301.87 164.458 1296V1286.4C164.458 1277.87 162.724 1271.87 159.258 1268.4C155.791 1264.67 149.791 1262.8 141.258 1262.8H115.258C106.991 1262.8 100.991 1264.67 97.2578 1268.4C93.7911 1271.87 92.0578 1277.87 92.0578 1286.4V1408.4C92.0578 1416.93 93.7911 1423.07 97.2578 1426.8C100.991 1430.27 106.991 1432 115.258 1432H141.258C149.791 1432 155.791 1430.27 159.258 1426.8C162.724 1423.07 164.458 1416.93 164.458 1408.4V1383.2C164.458 1380.27 162.991 1378.8 160.058 1378.8H136.058C130.458 1378.8 127.658 1376 127.658 1370.4V1343.2C127.658 1337.6 130.458 1334.8 136.058 1334.8H206.058C212.191 1334.8 215.258 1337.87 215.258 1344V1410.8C215.258 1431.6 209.524 1447.73 198.058 1459.2C186.591 1470.4 170.458 1476 149.658 1476ZM301.627 1476H267.627C262.027 1476 259.227 1473.2 259.227 1467.6V1280.4C259.227 1274.8 262.027 1272 267.627 1272H301.627C307.227 1272 310.027 1274.8 310.027 1280.4V1294H311.627C314.56 1286.8 319.76 1281.33 327.227 1277.6C334.693 1273.87 342.56 1272 350.827 1272H365.227C370.56 1272 373.227 1274.8 373.227 1280.4V1308C373.227 1311.2 372.56 1313.47 371.227 1314.8C370.16 1315.87 368.16 1316.27 365.227 1316H337.627C319.227 1316 310.027 1326.4 310.027 1347.2V1467.6C310.027 1473.2 307.227 1476 301.627 1476ZM549.08 1476H460.68C439.613 1476 423.346 1470.4 411.88 1459.2C400.413 1448 394.68 1431.87 394.68 1410.8V1337.2C394.68 1316.13 400.413 1300 411.88 1288.8C423.346 1277.6 439.613 1272 460.68 1272H492.28C513.346 1272 529.613 1277.6 541.08 1288.8C552.546 1300 558.28 1316.13 558.28 1337.2V1388C558.28 1393.6 555.48 1396.4 549.88 1396.4H449.48C446.28 1396.4 444.68 1397.87 444.68 1400.8V1409.6C444.68 1417.87 446.413 1423.87 449.88 1427.6C453.613 1431.07 459.746 1432.8 468.28 1432.8H549.08C554.68 1432.8 557.48 1435.73 557.48 1441.6V1468C557.48 1470.93 556.813 1473.07 555.48 1474.4C554.413 1475.47 552.28 1476 549.08 1476ZM449.48 1362.4H503.88C506.813 1362.4 508.28 1360.93 508.28 1358V1338.8C508.28 1330.27 506.546 1324.27 503.08 1320.8C499.613 1317.33 493.613 1315.6 485.08 1315.6H468.28C459.746 1315.6 453.746 1317.33 450.28 1320.8C446.813 1324.27 445.08 1330.27 445.08 1338.8V1358C445.08 1360.93 446.546 1362.4 449.48 1362.4ZM746.736 1476H658.336C637.269 1476 621.003 1470.4 609.536 1459.2C598.069 1448 592.336 1431.87 592.336 1410.8V1337.2C592.336 1316.13 598.069 1300 609.536 1288.8C621.003 1277.6 637.269 1272 658.336 1272H689.936C711.003 1272 727.269 1277.6 738.736 1288.8C750.203 1300 755.936 1316.13 755.936 1337.2V1388C755.936 1393.6 753.136 1396.4 747.536 1396.4H647.136C643.936 1396.4 642.336 1397.87 642.336 1400.8V1409.6C642.336 1417.87 644.069 1423.87 647.536 1427.6C651.269 1431.07 657.403 1432.8 665.936 1432.8H746.736C752.336 1432.8 755.136 1435.73 755.136 1441.6V1468C755.136 1470.93 754.469 1473.07 753.136 1474.4C752.069 1475.47 749.936 1476 746.736 1476ZM647.136 1362.4H701.536C704.469 1362.4 705.936 1360.93 705.936 1358V1338.8C705.936 1330.27 704.203 1324.27 700.736 1320.8C697.269 1317.33 691.269 1315.6 682.736 1315.6H665.936C657.403 1315.6 651.403 1317.33 647.936 1320.8C644.469 1324.27 642.736 1330.27 642.736 1338.8V1358C642.736 1360.93 644.203 1362.4 647.136 1362.4ZM836.392 1476H802.392C796.792 1476 793.992 1473.2 793.992 1467.6V1280.4C793.992 1274.8 796.792 1272 802.392 1272H836.392C841.992 1272 844.792 1274.8 844.792 1280.4V1293.6H846.392C852.259 1279.2 865.326 1272 885.592 1272H898.392C940.259 1272 961.192 1293.73 961.192 1337.2V1467.6C961.192 1473.2 958.259 1476 952.392 1476H918.792C913.192 1476 910.392 1473.2 910.392 1467.6V1339.6C910.392 1331.07 908.526 1325.07 904.792 1321.6C901.326 1317.87 895.326 1316 886.792 1316H872.392C853.992 1316 844.792 1326.13 844.792 1346.4V1467.6C844.792 1473.2 841.992 1476 836.392 1476ZM1199.66 1476H1157.26C1136.19 1476 1119.92 1470.4 1108.46 1459.2C1096.99 1448 1091.26 1431.87 1091.26 1410.8V1284C1091.26 1262.93 1096.99 1246.8 1108.46 1235.6C1119.92 1224.4 1136.19 1218.8 1157.26 1218.8H1199.66C1220.46 1218.8 1236.59 1224.53 1248.06 1236C1259.52 1247.2 1265.26 1263.2 1265.26 1284V1296C1265.26 1301.87 1262.46 1304.8 1256.86 1304.8H1222.86C1217.26 1304.8 1214.46 1301.87 1214.46 1296V1286.4C1214.46 1277.87 1212.72 1271.87 1209.26 1268.4C1205.79 1264.67 1199.79 1262.8 1191.26 1262.8H1165.26C1156.99 1262.8 1150.99 1264.67 1147.26 1268.4C1143.79 1271.87 1142.06 1277.87 1142.06 1286.4V1408.4C1142.06 1416.93 1143.79 1423.07 1147.26 1426.8C1150.99 1430.27 1156.99 1432 1165.26 1432H1191.26C1199.79 1432 1205.79 1430.27 1209.26 1426.8C1212.72 1423.07 1214.46 1416.93 1214.46 1408.4V1383.2C1214.46 1380.27 1212.99 1378.8 1210.06 1378.8H1186.06C1180.46 1378.8 1177.66 1376 1177.66 1370.4V1343.2C1177.66 1337.6 1180.46 1334.8 1186.06 1334.8H1256.06C1262.19 1334.8 1265.26 1337.87 1265.26 1344V1410.8C1265.26 1431.6 1259.52 1447.73 1248.06 1459.2C1236.59 1470.4 1220.46 1476 1199.66 1476ZM1406.83 1476H1371.23C1350.16 1476 1333.89 1470.4 1322.43 1459.2C1310.96 1448 1305.23 1431.87 1305.23 1410.8V1337.2C1305.23 1316.13 1310.96 1300 1322.43 1288.8C1333.89 1277.6 1350.16 1272 1371.23 1272H1406.83C1427.63 1272 1443.76 1277.73 1455.23 1289.2C1466.96 1300.4 1472.83 1316.4 1472.83 1337.2V1410.8C1472.83 1431.6 1466.96 1447.73 1455.23 1459.2C1443.76 1470.4 1427.63 1476 1406.83 1476ZM1378.83 1432.4H1399.23C1407.76 1432.4 1413.76 1430.67 1417.23 1427.2C1420.96 1423.73 1422.83 1417.73 1422.83 1409.2V1338.8C1422.83 1330.27 1420.96 1324.27 1417.23 1320.8C1413.76 1317.33 1407.76 1315.6 1399.23 1315.6H1378.83C1370.29 1315.6 1364.29 1317.33 1360.83 1320.8C1357.36 1324.27 1355.63 1330.27 1355.63 1338.8V1409.2C1355.63 1417.73 1357.36 1423.73 1360.83 1427.2C1364.29 1430.67 1370.29 1432.4 1378.83 1432.4Z" fill="white"/>
</g>
<defs>
<clipPath id="clip0">
<rect width="1500" height="1568" fill="white"/>
</clipPath>
</defs>
</svg>
