<svg width="1219" height="1443" viewBox="0 0 1219 1443" fill="none" xmlns="http://www.w3.org/2000/svg">
<path d="M78.0139 633.088C78.0139 633.088 1.01391 591.088 0.0139144 574.088C-0.986086 557.088 52.0139 508.088 127.014 490.088C202.014 472.088 310.524 460.028 323.014 468.088C354.014 488.088 413.014 675.088 402.014 706.088C391.014 737.088 262.014 921.088 237.014 1024.09C229.144 1056.52 232.014 1091.09 278.014 1104.09C278.014 1104.09 153.814 1102.34 78.0139 931.088C24.0139 809.088 34.0439 784.258 38.0139 726.088C41.0139 682.088 78.0139 633.088 78.0139 633.088Z" fill="#22B573"/>
<path d="M670.514 1103.59L279.514 1105.59C279.514 1105.59 233.514 1094.59 233.514 1052.59C233.514 1010.59 271.514 913.588 302.514 886.588C333.514 859.588 691.514 831.588 656.514 859.588C621.514 887.588 591.434 920.128 589.514 965.588C588.014 1001.09 670.514 1103.59 670.514 1103.59Z" fill="#228873"/>
<path d="M1057.01 465.088L1185.01 684.088C1185.01 684.088 1199.01 727.088 1185.01 761.088C1171.01 795.088 1088.25 872.658 1032.13 839.878C976.014 807.088 938.014 544.088 975.014 504.088C1012.01 464.088 1057.01 465.088 1057.01 465.088Z" fill="#228873"/>
<path d="M887.014 1113.09C887.014 1113.09 899.014 1202.09 872.014 1209.09C845.014 1216.09 834.014 1209.09 791.014 1190.09C748.014 1171.09 629.014 1060.09 602.014 973.088C575.014 886.088 829.014 747.088 903.014 696.088C983.174 640.848 1020.16 813.608 1066.59 802.348C1113.01 791.088 1201.01 760.088 1185.01 684.088C1184.6 682.148 1218.01 738.078 1218.01 785.088C1218.01 870.088 1165.35 964.738 1138.01 1000.09C1097.01 1053.09 1050.07 1091.84 1015.01 1100.09C964.014 1112.09 887.014 1113.09 887.014 1113.09Z" fill="#22B573"/>
<path d="M262.704 316.868C262.704 316.868 374.014 112.088 391.014 88.0881C408.014 64.0881 493.014 21.0881 542.014 56.0881C591.014 91.0881 734.014 345.088 691.014 396.088C648.014 447.088 296.014 455.088 272.014 382.088" fill="#228873"/>
<path d="M391.014 88.0882C391.014 88.0882 427.014 56.0882 460.014 76.0882C493.014 96.0882 544.014 161.238 620.014 324.658C696.014 488.078 908.014 420.088 944.014 396.088C980.014 372.088 1004.01 284.088 1005.01 258.088C1006.01 232.088 1017.36 119.888 973.014 132.088C933.014 143.088 900.014 173.088 900.014 173.088C900.014 173.088 850.764 80.4382 815.014 55.0882C760.014 16.0882 725.014 0.0881633 643.014 0.0881633C601.004 0.0881633 558.014 -2.91184 467.014 26.0882C415.344 42.5582 391.014 88.0882 391.014 88.0882Z" fill="#22B573"/>
<path d="M416.014 365.088L158.014 222.088L175.014 833.088L416.014 995.088" fill="#D2BB8F"/>
<path d="M416.014 404.088L191.014 276.088L201.014 808.088L416.014 955.088" fill="#4EBE82"/>
<path d="M416.014 641.088L247.504 839.878L208.914 813.488L390.014 596.088L193.624 414.838V347.128L416.014 562.088" fill="#B39A5E"/>
<path d="M790.904 222.088V821.088L416.154 995.088V365.088L790.904 222.088Z" fill="#D2BB8F"/>
<path d="M790.904 785.088L604.014 870.878L629.014 670.088L790.904 622.758" fill="#6FC0E2"/>
<path d="M790.904 258.138L416.154 404.018V955.088L629.014 858.088C629.014 858.088 635.784 776.998 710.014 685.088C752.014 633.088 790.904 635.088 790.904 635.088" fill="#82D9AB"/>
<path d="M544.174 896.448L489.014 832.088L790.904 462.088V394.088L706.014 496.088L613.014 417.088L720.064 285.638L628.264 321.498L416.154 562.468V641.488L576.014 463.088L667.014 540.088L416.154 837.618L492.064 920.068" fill="#B39A5E"/>
<path d="M1062.01 1001.09L1076.01 393.088L790.904 222.088V822.088L1062.01 1001.09Z" fill="#D2BB8F"/>
<path d="M1030.01 936.088L1037.71 586.978L790.904 612.588V785.358L1030.01 936.088Z" fill="#4DA3DB"/>
<path d="M790.904 258.138L1043.87 410.088L1036.87 611.088C1036.87 611.088 1001.87 666.088 950.874 670.088C899.874 674.088 863.874 637.068 823.874 634.088C797.014 632.088 790.904 635.088 790.904 635.088V258.138Z" fill="#4EBE82"/>
<path d="M1040.46 508.008L965.014 612.088L790.904 464.268V396.548L955.014 535.088L1043.36 424.808L1040.46 508.008Z" fill="#B39A5E"/>
<path d="M629.484 366.088C587.634 366.088 553.574 400.138 553.574 441.998C553.574 452.918 555.804 463.338 560.214 472.988C579.194 514.518 615.584 558.368 626.284 570.818C627.084 571.748 628.254 572.288 629.484 572.288C630.714 572.288 631.884 571.748 632.684 570.818C643.384 558.368 679.774 514.528 698.754 472.988C703.164 463.348 705.394 452.918 705.394 441.998C705.394 400.138 671.344 366.088 629.484 366.088ZM629.484 481.428C607.744 481.428 590.054 463.738 590.054 441.998C590.054 420.258 607.744 402.568 629.484 402.568C651.224 402.568 668.914 420.258 668.914 441.998C668.924 463.738 651.234 481.428 629.484 481.428Z" fill="#C92020"/>
<path d="M192.8 1339H161C145.2 1339 133 1334.8 124.4 1326.4C115.8 1318 111.5 1305.9 111.5 1290.1V1195C111.5 1179.2 115.8 1167.1 124.4 1158.7C133 1150.3 145.2 1146.1 161 1146.1H192.8C208.4 1146.1 220.5 1150.4 229.1 1159C237.7 1167.4 242 1179.4 242 1195V1204C242 1208.4 239.9 1210.6 235.7 1210.6H210.2C206 1210.6 203.9 1208.4 203.9 1204V1196.8C203.9 1190.4 202.6 1185.9 200 1183.3C197.4 1180.5 192.9 1179.1 186.5 1179.1H167C160.8 1179.1 156.3 1180.5 153.5 1183.3C150.9 1185.9 149.6 1190.4 149.6 1196.8V1288.3C149.6 1294.7 150.9 1299.3 153.5 1302.1C156.3 1304.7 160.8 1306 167 1306H186.5C192.9 1306 197.4 1304.7 200 1302.1C202.6 1299.3 203.9 1294.7 203.9 1288.3V1269.4C203.9 1267.2 202.8 1266.1 200.6 1266.1H182.6C178.4 1266.1 176.3 1264 176.3 1259.8V1239.4C176.3 1235.2 178.4 1233.1 182.6 1233.1H235.1C239.7 1233.1 242 1235.4 242 1240V1290.1C242 1305.7 237.7 1317.8 229.1 1326.4C220.5 1334.8 208.4 1339 192.8 1339ZM306.777 1339H281.277C277.077 1339 274.977 1336.9 274.977 1332.7V1192.3C274.977 1188.1 277.077 1186 281.277 1186H306.777C310.977 1186 313.077 1188.1 313.077 1192.3V1202.5H314.277C316.477 1197.1 320.377 1193 325.977 1190.2C331.577 1187.4 337.477 1186 343.677 1186H354.477C358.477 1186 360.477 1188.1 360.477 1192.3V1213C360.477 1215.4 359.977 1217.1 358.977 1218.1C358.177 1218.9 356.677 1219.2 354.477 1219H333.777C319.977 1219 313.077 1226.8 313.077 1242.4V1332.7C313.077 1336.9 310.977 1339 306.777 1339ZM492.366 1339H426.066C410.266 1339 398.066 1334.8 389.466 1326.4C380.866 1318 376.566 1305.9 376.566 1290.1V1234.9C376.566 1219.1 380.866 1207 389.466 1198.6C398.066 1190.2 410.266 1186 426.066 1186H449.766C465.566 1186 477.766 1190.2 486.366 1198.6C494.966 1207 499.266 1219.1 499.266 1234.9V1273C499.266 1277.2 497.166 1279.3 492.966 1279.3H417.666C415.266 1279.3 414.066 1280.4 414.066 1282.6V1289.2C414.066 1295.4 415.366 1299.9 417.966 1302.7C420.766 1305.3 425.366 1306.6 431.766 1306.6H492.366C496.566 1306.6 498.666 1308.8 498.666 1313.2V1333C498.666 1335.2 498.166 1336.8 497.166 1337.8C496.366 1338.6 494.766 1339 492.366 1339ZM417.666 1253.8H458.466C460.666 1253.8 461.766 1252.7 461.766 1250.5V1236.1C461.766 1229.7 460.466 1225.2 457.866 1222.6C455.266 1220 450.766 1218.7 444.366 1218.7H431.766C425.366 1218.7 420.866 1220 418.266 1222.6C415.666 1225.2 414.366 1229.7 414.366 1236.1V1250.5C414.366 1252.7 415.466 1253.8 417.666 1253.8ZM640.609 1339H574.309C558.509 1339 546.309 1334.8 537.709 1326.4C529.109 1318 524.809 1305.9 524.809 1290.1V1234.9C524.809 1219.1 529.109 1207 537.709 1198.6C546.309 1190.2 558.509 1186 574.309 1186H598.009C613.809 1186 626.009 1190.2 634.609 1198.6C643.209 1207 647.509 1219.1 647.509 1234.9V1273C647.509 1277.2 645.409 1279.3 641.209 1279.3H565.909C563.509 1279.3 562.309 1280.4 562.309 1282.6V1289.2C562.309 1295.4 563.609 1299.9 566.209 1302.7C569.009 1305.3 573.609 1306.6 580.009 1306.6H640.609C644.809 1306.6 646.909 1308.8 646.909 1313.2V1333C646.909 1335.2 646.409 1336.8 645.409 1337.8C644.609 1338.6 643.009 1339 640.609 1339ZM565.909 1253.8H606.709C608.909 1253.8 610.009 1252.7 610.009 1250.5V1236.1C610.009 1229.7 608.709 1225.2 606.109 1222.6C603.509 1220 599.009 1218.7 592.609 1218.7H580.009C573.609 1218.7 569.109 1220 566.509 1222.6C563.909 1225.2 562.609 1229.7 562.609 1236.1V1250.5C562.609 1252.7 563.709 1253.8 565.909 1253.8ZM707.851 1339H682.351C678.151 1339 676.051 1336.9 676.051 1332.7V1192.3C676.051 1188.1 678.151 1186 682.351 1186H707.851C712.051 1186 714.151 1188.1 714.151 1192.3V1202.2H715.351C719.751 1191.4 729.551 1186 744.751 1186H754.351C785.751 1186 801.451 1202.3 801.451 1234.9V1332.7C801.451 1336.9 799.251 1339 794.851 1339H769.651C765.451 1339 763.351 1336.9 763.351 1332.7V1236.7C763.351 1230.3 761.951 1225.8 759.151 1223.2C756.551 1220.4 752.051 1219 745.651 1219H734.851C721.051 1219 714.151 1226.6 714.151 1241.8V1332.7C714.151 1336.9 712.051 1339 707.851 1339ZM953 1332.1H943.1C927.7 1332.1 916 1327.9 908 1319.5C900.2 1311.1 896.3 1299 896.3 1283.2V1234.9C896.3 1219.1 900.6 1207 909.2 1198.6C917.8 1190.2 930 1186 945.8 1186H1015.1C1019.5 1186 1021.7 1188.1 1021.7 1192.3V1340.2C1021.7 1355.8 1017.3 1367.8 1008.5 1376.2C999.9 1384.6 987.8 1388.8 972.2 1388.8H914.6C912.2 1388.8 910.5 1388.3 909.5 1387.3C908.7 1386.5 908.3 1385 908.3 1382.8V1362.1C908.3 1357.9 910.4 1355.8 914.6 1355.8H965.9C972.3 1355.8 976.8 1354.4 979.4 1351.6C982.2 1349 983.6 1344.6 983.6 1338.4V1315.6H982.4C980.2 1321 976.3 1325.1 970.7 1327.9C965.1 1330.7 959.2 1332.1 953 1332.1ZM983.6 1276.3V1222.3C983.6 1220.1 982.4 1219 980 1219H951.8C945.4 1219 940.9 1220.4 938.3 1223.2C935.7 1225.8 934.4 1230.3 934.4 1236.7V1281.4C934.4 1287.8 935.7 1292.3 938.3 1294.9C940.9 1297.5 945.4 1298.8 951.8 1298.8H962.9C976.7 1298.8 983.6 1291.3 983.6 1276.3ZM1127.77 1339H1101.07C1085.27 1339 1073.07 1334.8 1064.47 1326.4C1055.87 1318 1051.57 1305.9 1051.57 1290.1V1234.9C1051.57 1219.1 1055.87 1207 1064.47 1198.6C1073.07 1190.2 1085.27 1186 1101.07 1186H1127.77C1143.37 1186 1155.47 1190.3 1164.07 1198.9C1172.87 1207.3 1177.27 1219.3 1177.27 1234.9V1290.1C1177.27 1305.7 1172.87 1317.8 1164.07 1326.4C1155.47 1334.8 1143.37 1339 1127.77 1339ZM1106.77 1306.3H1122.07C1128.47 1306.3 1132.97 1305 1135.57 1302.4C1138.37 1299.8 1139.77 1295.3 1139.77 1288.9V1236.1C1139.77 1229.7 1138.37 1225.2 1135.57 1222.6C1132.97 1220 1128.47 1218.7 1122.07 1218.7H1106.77C1100.37 1218.7 1095.87 1220 1093.27 1222.6C1090.67 1225.2 1089.37 1229.7 1089.37 1236.1V1288.9C1089.37 1295.3 1090.67 1299.8 1093.27 1302.4C1095.87 1305 1100.37 1306.3 1106.77 1306.3Z" fill="#228873"/>
</svg>
